<svg xmlns="http://www.w3.org/2000/svg" width="1400" height="460" viewBox="0 0 1400 460" role="img" aria-labelledby="title description">
  <title id="title">OhMyCode</title>
  <desc id="description">An open workspace for coding agents</desc>
  <defs>
    <linearGradient id="background" x1="0" y1="0" x2="1" y2="1">
      <stop offset="0" stop-color="#15181d"/>
      <stop offset="0.58" stop-color="#0d0f12"/>
      <stop offset="1" stop-color="#090b0e"/>
    </linearGradient>
    <radialGradient id="accentGlow" cx="0" cy="0" r="1" gradientTransform="translate(1110 210) rotate(180) scale(430 330)" gradientUnits="userSpaceOnUse">
      <stop stop-color="#7dff98" stop-opacity="0.19"/>
      <stop offset="0.48" stop-color="#7dff98" stop-opacity="0.05"/>
      <stop offset="1" stop-color="#7dff98" stop-opacity="0"/>
    </radialGradient>
    <linearGradient id="accent" x1="1020" y1="125" x2="1218" y2="335" gradientUnits="userSpaceOnUse">
      <stop stop-color="#9dffaf"/>
      <stop offset="1" stop-color="#58ee79"/>
    </linearGradient>
    <pattern id="grid" width="40" height="40" patternUnits="userSpaceOnUse">
      <path d="M40 0H0V40" fill="none" stroke="#ffffff" stroke-opacity="0.035"/>
    </pattern>
    <filter id="glow" x="-50%" y="-50%" width="200%" height="200%">
      <feGaussianBlur stdDeviation="12" result="blur"/>
      <feMerge>
        <feMergeNode in="blur"/>
        <feMergeNode in="SourceGraphic"/>
      </feMerge>
    </filter>
    <clipPath id="frame">
      <rect width="1400" height="460" rx="24"/>
    </clipPath>
  </defs>

  <g clip-path="url(#frame)">
    <rect width="1400" height="460" fill="url(#background)"/>
    <rect width="1400" height="460" fill="url(#grid)"/>
    <rect width="1400" height="460" fill="url(#accentGlow)"/>

    <path d="M0 88H544" stroke="#2a3038"/>
    <path d="M856 372H1400" stroke="#2a3038"/>
    <path d="M104 0V460" stroke="#2a3038" stroke-opacity="0.55"/>
    <path d="M1296 0V460" stroke="#2a3038" stroke-opacity="0.55"/>

    <g transform="translate(140 122)">
      <text x="0" y="36" fill="#7dff98" font-family="Segoe UI, PingFang SC, Microsoft YaHei, sans-serif" font-size="18" font-weight="650" letter-spacing="3">OPEN SOURCE · DESKTOP FIRST</text>
      <text x="0" y="122" font-family="Segoe UI, PingFang SC, Microsoft YaHei, sans-serif" font-size="78" font-weight="760" letter-spacing="-3"><tspan fill="#f1f3ee">Oh</tspan><tspan fill="#7dff98">My</tspan><tspan fill="#f1f3ee">Code</tspan></text>
      <text x="4" y="174" fill="#b1b7bf" font-family="Segoe UI, PingFang SC, Microsoft YaHei, sans-serif" font-size="25" font-weight="400">An open workspace for coding agents.</text>
      <g transform="translate(4 218)" fill="#929aa4" font-family="Segoe UI, PingFang SC, Microsoft YaHei, sans-serif" font-size="15" font-weight="520">
        <text x="0" y="0">DESKTOP RUNTIME</text>
        <rect x="170" y="-13" width="1" height="17" fill="#424a55"/>
        <text x="194" y="0">PERSISTENT TOOLS</text>
        <rect x="352" y="-13" width="1" height="17" fill="#424a55"/>
        <text x="376" y="0">MULTI-AGENT</text>
      </g>
    </g>

    <g transform="translate(890 75)">
      <rect x="0" y="0" width="390" height="310" rx="16" fill="#12161b" stroke="#424a55"/>
      <path d="M0 54H390" stroke="#2a3038"/>
      <text x="24" y="34" fill="#929aa4" font-family="Consolas, SFMono-Regular, monospace" font-size="14">agent.runtime</text>
      <text x="344" y="34" fill="#7dff98" font-family="Consolas, SFMono-Regular, monospace" font-size="13">LIVE</text>

      <g font-family="Consolas, SFMono-Regular, monospace" font-size="14">
        <text x="26" y="91" fill="#7dff98">›</text>
        <text x="48" y="91" fill="#f1f3ee">inspect workspace</text>
        <text x="48" y="120" fill="#929aa4">reading repository instructions</text>

        <path d="M31 150V258" stroke="#343b44" stroke-width="2"/>
        <rect x="25" y="151" width="12" height="12" rx="3" fill="#7dff98"/>
        <text x="52" y="162" fill="#d0d4d9">read_file</text>
        <text x="294" y="162" fill="#7dff98">done</text>

        <rect x="25" y="199" width="12" height="12" rx="3" fill="#7dff98"/>
        <text x="52" y="210" fill="#d0d4d9">apply_patch</text>
        <text x="294" y="210" fill="#7dff98">done</text>

        <rect x="25" y="247" width="12" height="12" rx="3" fill="#7dff98"/>
        <text x="52" y="258" fill="#d0d4d9">verify changes</text>
        <text x="294" y="258" fill="#7dff98">done</text>
      </g>

      <path d="M280 283H356" stroke="#7dff98" stroke-width="2" filter="url(#glow)"/>
    </g>

    <rect x="0.5" y="0.5" width="1399" height="459" rx="23.5" fill="none" stroke="#343b44"/>
  </g>
</svg>
